<svg width="18" height="18" viewBox="0 0 18 18" fill="none" xmlns="http://www.w3.org/2000/svg">
<path d="M15.9731 15.9246C15.6977 16.2001 15.3241 16.3548 14.9345 16.3548C14.545 16.3548 14.1714 16.2001 13.896 15.9246L1.08702 3.1157C0.811581 2.84025 0.656838 2.46667 0.656838 2.07713C0.656838 1.6876 0.811581 1.31401 1.08702 1.03857C1.36247 0.763126 1.73605 0.608384 2.12559 0.608384C2.51512 0.608384 2.88871 0.763126 3.16415 1.03857L15.9869 13.8614C16.2517 14.1404 16.3982 14.5111 16.3956 14.8958C16.393 15.2805 16.2416 15.6492 15.9731 15.9246Z" fill="white"/>
<path d="M15.9246 3.16332L3.11569 15.9723C2.84025 16.2477 2.46666 16.4025 2.07713 16.4025C1.68759 16.4025 1.31401 16.2477 1.03856 15.9723C0.763119 15.6968 0.608376 15.3232 0.608376 14.9337C0.608376 14.5442 0.763119 14.1706 1.03856 13.8951L13.8475 1.08619C14.123 0.81075 14.4965 0.656006 14.8861 0.656006C15.2756 0.656006 15.6492 0.81075 15.9246 1.08619C16.2001 1.36164 16.3548 1.73522 16.3548 2.12476C16.3548 2.51429 16.2001 2.88788 15.9246 3.16332Z" fill="white"/>
</svg>
