<svg width="186" height="186" viewBox="0 0 186 186" fill="none" xmlns="http://www.w3.org/2000/svg">
<path d="M93 131.75C81.1607 131.75 69.8064 127.047 61.4347 118.675C53.0631 110.304 48.36 98.9493 48.36 87.11V35.34C48.242 33.6629 48.242 31.9796 48.36 30.3025C48.5327 28.8713 49.231 27.5554 50.3195 26.6102C51.4079 25.6649 52.8087 25.1579 54.25 25.1875H131.75C133.169 25.1792 134.542 25.6976 135.601 26.6424C136.66 27.5872 137.332 28.8913 137.485 30.3025C137.603 31.9796 137.603 33.6629 137.485 35.34V87.11C137.485 98.9225 132.803 110.253 124.465 118.621C116.127 126.988 104.812 131.709 93 131.75ZM59.985 36.8125V87.11C59.985 95.8661 63.4634 104.264 69.6549 110.455C75.8464 116.647 84.2439 120.125 93 120.125C101.756 120.125 110.154 116.647 116.345 110.455C122.537 104.264 126.015 95.8661 126.015 87.11V36.8125H59.985Z" fill="#866828"/>
<path d="M131.75 98.5025C130.98 98.5549 130.208 98.4536 129.477 98.2043C128.747 97.9551 128.074 97.5629 127.497 97.0507C126.92 96.5386 126.45 95.9166 126.116 95.2211C125.782 94.5256 125.589 93.7706 125.55 93C125.55 91.4643 126.149 89.9892 127.22 88.889C128.291 87.7887 129.75 87.1504 131.285 87.11C149.653 87.11 154.535 66.96 155.388 56.73H131.75C130.208 56.73 128.73 56.1176 127.64 55.0275C126.55 53.9375 125.938 52.4591 125.938 50.9175C125.938 49.3759 126.55 47.8975 127.64 46.8074C128.73 45.7174 130.208 45.105 131.75 45.105H161.51C163.045 45.1251 164.512 45.7439 165.598 46.8296C166.684 47.9154 167.302 49.3822 167.323 50.9175C167.323 67.3475 159.573 98.425 131.285 98.735L131.75 98.5025Z" fill="#866828"/>
<path d="M54.715 98.5026C26.195 98.5026 18.6775 67.5026 18.6775 50.6851C18.6775 49.1435 19.2899 47.6651 20.3799 46.575C21.47 45.4849 22.9484 44.8726 24.49 44.8726H54.25C55.7916 44.8726 57.27 45.4849 58.3601 46.575C59.4501 47.6651 60.0625 49.1435 60.0625 50.6851C60.0625 52.2266 59.4501 53.7051 58.3601 54.7951C57.27 55.8852 55.7916 56.4976 54.25 56.4976H31C32.1625 66.7276 36.735 86.8001 55.1025 86.8776C55.8658 86.8776 56.6216 87.0279 57.3268 87.32C58.0321 87.6121 58.6728 88.0403 59.2126 88.58C59.7523 89.1197 60.1804 89.7605 60.4725 90.4657C60.7647 91.1709 60.915 91.9268 60.915 92.6901C60.915 93.4534 60.7647 94.2092 60.4725 94.9144C60.1804 95.6196 59.7523 96.2604 59.2126 96.8001C58.6728 97.3399 58.0321 97.768 57.3268 98.0601C56.6216 98.3522 55.8658 98.5026 55.1025 98.5026H54.715Z" fill="#866828"/>
<path d="M93 160.812C91.4647 160.792 89.9979 160.174 88.9121 159.088C87.8264 158.002 87.2076 156.535 87.1875 155V125.938C87.1875 124.396 87.7999 122.918 88.8899 121.827C89.98 120.737 91.4584 120.125 93 120.125C94.5416 120.125 96.02 120.737 97.1101 121.827C98.2001 122.918 98.8125 124.396 98.8125 125.938V155C98.7924 156.535 98.1736 158.002 97.0879 159.088C96.0021 160.174 94.5353 160.792 93 160.812Z" fill="#866828"/>
</svg>
