<svg width="186" height="186" viewBox="0 0 186 186" fill="none" xmlns="http://www.w3.org/2000/svg">
<path d="M91.45 173.427C24.025 173.427 23.25 106.235 23.25 105.537V42.8398C23.2544 41.7271 23.578 40.6391 24.1825 39.7049C24.7869 38.7707 25.6468 38.0297 26.66 37.5698L88.66 8.27477C89.441 7.92875 90.2858 7.75 91.14 7.75C91.9942 7.75 92.839 7.92875 93.62 8.27477L156.008 37.5698C157.006 38.0409 157.85 38.7868 158.44 39.7201C159.03 40.6534 159.342 41.7355 159.34 42.8398V105.537C159.65 106.08 158.875 173.427 91.45 173.427ZM34.875 46.5598V105.537C34.875 107.862 35.805 161.802 91.45 161.802C147.095 161.802 148.025 107.552 148.025 105.537V46.5598L91.45 19.9773L34.875 46.5598Z" fill="#866828"/>
</svg>
