<svg width="182" height="182" viewBox="0 0 182 182" fill="none" xmlns="http://www.w3.org/2000/svg">
<path d="M91.0001 177.526C90.2703 177.534 89.5462 177.397 88.8694 177.124C88.1927 176.85 87.5767 176.446 87.0568 175.934L57.5576 146.889C56.4698 145.831 55.8431 144.387 55.8135 142.87V54.8277C55.8135 53.3192 56.4127 51.8726 57.4793 50.806C58.5459 49.7394 59.9926 49.1402 61.501 49.1402H120.499C121.243 49.1301 121.98 49.2678 122.67 49.5454C123.36 49.8229 123.987 50.2346 124.516 50.7567C125.046 51.2788 125.466 51.9008 125.753 52.5867C126.039 53.2725 126.187 54.0085 126.187 54.7518L126.793 142.264C126.792 143.771 126.192 145.217 125.125 146.283L95.2468 175.934C94.681 176.469 94.0137 176.885 93.2844 177.159C92.5551 177.432 91.7784 177.557 91.0001 177.526ZM67.1885 140.444L91.0001 163.876L115.191 139.913L114.888 60.6668H67.1885V140.444Z" fill="#866828"/>
<path d="M149.392 60.6667H32.6084C31.1 60.6667 29.6533 60.0675 28.5867 59.0009C27.5201 57.9343 26.9209 56.4877 26.9209 54.9792C26.9209 53.4708 27.5201 52.0242 28.5867 50.9576C29.6533 49.891 31.1 49.2917 32.6084 49.2917H149.392C150.9 49.2917 152.347 49.891 153.413 50.9576C154.48 52.0242 155.079 53.4708 155.079 54.9792C155.079 56.4877 154.48 57.9343 153.413 59.0009C152.347 60.0675 150.9 60.6667 149.392 60.6667Z" fill="#866828"/>
<path d="M108.897 60.6667C108.15 60.6568 107.412 60.4999 106.726 60.2049C106.04 59.9099 105.418 59.4826 104.897 58.9474C104.376 58.4122 103.965 57.7796 103.689 57.0858C103.412 56.3919 103.275 55.6503 103.285 54.9034C103.285 41.9359 103.285 27.7551 103.285 20.3992H79.0183V54.8276C79.0183 56.336 78.4191 57.7826 77.3525 58.8492C76.2859 59.9158 74.8392 60.5151 73.3308 60.5151C71.8224 60.5151 70.3758 59.9158 69.3091 58.8492C68.2425 57.7826 67.6433 56.336 67.6433 54.8276V14.5601C67.6433 13.0516 68.2425 11.605 69.3091 10.5384C70.3758 9.47178 71.8224 8.87256 73.3308 8.87256H108.745C110.253 8.87389 111.699 9.47397 112.764 10.5409C114.963 12.7401 114.963 12.8159 114.432 54.9034C114.453 56.399 113.883 57.8424 112.847 58.9211C111.811 59.9998 110.392 60.627 108.897 60.6667Z" fill="#866828"/>
</svg>
