<svg width="50" height="50" viewBox="0 0 50 50" fill="none" xmlns="http://www.w3.org/2000/svg">
<rect width="50" height="50" rx="25" fill="white" fill-opacity="0.5"/>
<path d="M25.2333 39.7501C25.0863 39.7511 24.9419 39.7107 24.8167 39.6334L11.9 32.1834C11.7739 32.1068 11.6694 31.9992 11.5964 31.8709C11.5235 31.7425 11.4846 31.5977 11.4833 31.4501V16.5501C11.4846 16.4025 11.5235 16.2577 11.5964 16.1293C11.6694 16.001 11.7739 15.8934 11.9 15.8168L24.8167 8.36677C24.9434 8.29363 25.0871 8.25513 25.2333 8.25513C25.3796 8.25513 25.5233 8.29363 25.65 8.36677L38.5667 15.8168C38.6951 15.8909 38.8014 15.9979 38.8746 16.1268C38.9479 16.2557 38.9854 16.4019 38.9833 16.5501V31.4501C38.9854 31.5984 38.9479 31.7445 38.8746 31.8734C38.8014 32.0023 38.6951 32.1093 38.5667 32.1834L25.65 39.6334C25.5265 39.7143 25.3809 39.7551 25.2333 39.7501V39.7501ZM13.15 30.9834L25.2333 37.9501L37.3167 30.9834V17.0168L25.2333 10.0501L13.15 17.0168V30.9834Z" fill="white"/>
<path d="M25.2333 30.5502C25.0123 30.5502 24.8004 30.4624 24.6441 30.3061C24.4878 30.1499 24.4 29.9379 24.4 29.7169V18.5502C24.4085 18.3741 24.4704 18.2048 24.5776 18.0648C24.6849 17.9249 24.8322 17.8209 25 17.7669C25.1547 17.7086 25.3225 17.695 25.4846 17.7274C25.6466 17.7598 25.7963 17.837 25.9167 17.9502L30.4833 22.5169C30.561 22.5946 30.6227 22.6868 30.6647 22.7883C30.7068 22.8899 30.7284 22.9987 30.7284 23.1086C30.7284 23.2184 30.7068 23.3272 30.6647 23.4288C30.6227 23.5303 30.561 23.6225 30.4833 23.7002C30.4056 23.7779 30.3134 23.8396 30.2119 23.8816C30.1104 23.9237 30.0016 23.9453 29.8917 23.9453C29.7818 23.9453 29.673 23.9237 29.5715 23.8816C29.4699 23.8396 29.3777 23.7779 29.3 23.7002L26.0667 20.5502V29.7169C26.0667 29.9379 25.9789 30.1499 25.8226 30.3061C25.6663 30.4624 25.4544 30.5502 25.2333 30.5502Z" fill="white"/>
<path d="M20.6667 24.0002C20.4469 23.9971 20.2372 23.9072 20.0833 23.7502C19.9296 23.5916 19.8436 23.3794 19.8436 23.1585C19.8436 22.9377 19.9296 22.7255 20.0833 22.5669L24.65 18.0002C24.8069 17.8433 25.0198 17.7551 25.2417 17.7551C25.4636 17.7551 25.6764 17.8433 25.8333 18.0002C25.9903 18.1571 26.0784 18.37 26.0784 18.5919C26.0784 18.8138 25.9903 19.0266 25.8333 19.1835L21.2667 23.7002C21.1922 23.7883 21.1007 23.8603 20.9975 23.9119C20.8944 23.9635 20.7818 23.9935 20.6667 24.0002Z" fill="white"/>
</svg>
