<svg width="186" height="186" viewBox="0 0 186 186" fill="none" xmlns="http://www.w3.org/2000/svg">
<path d="M135.625 164.688H50.375C42.6671 164.688 35.275 161.626 29.8247 156.175C24.3744 150.725 21.3125 143.333 21.3125 135.625V50.375C21.3125 42.6671 24.3744 35.275 29.8247 29.8247C35.275 24.3744 42.6671 21.3125 50.375 21.3125H135.625C143.333 21.3125 150.725 24.3744 156.175 29.8247C161.626 35.275 164.688 42.6671 164.688 50.375V135.625C164.688 143.333 161.626 150.725 156.175 156.175C150.725 161.626 143.333 164.688 135.625 164.688ZM50.375 32.9375C45.7503 32.9375 41.315 34.7747 38.0448 38.0448C34.7747 41.315 32.9375 45.7503 32.9375 50.375V135.625C32.9375 140.25 34.7747 144.685 38.0448 147.955C41.315 151.225 45.7503 153.062 50.375 153.062H135.625C140.25 153.062 144.685 151.225 147.955 147.955C151.225 144.685 153.062 140.25 153.062 135.625V50.375C153.062 45.7503 151.225 41.315 147.955 38.0448C144.685 34.7747 140.25 32.9375 135.625 32.9375H50.375Z" fill="#866828"/>
<path d="M27.1249 132.215C26.2686 132.214 25.4229 132.026 24.6465 131.665C23.8702 131.303 23.182 130.777 22.6299 130.123C21.7771 128.964 21.3842 127.53 21.5274 126.099C21.6706 124.667 22.3395 123.339 23.4049 122.373L59.8299 92.1476C62.7551 89.7083 66.1324 87.8694 69.7687 86.7361C73.4051 85.6028 77.2291 85.1973 81.0222 85.5428C84.8153 85.8883 88.5031 86.978 91.8748 88.7496C95.2466 90.5212 98.2361 92.9399 100.672 95.8676L109.352 106.253C110.843 108.037 112.675 109.506 114.741 110.572C116.807 111.638 119.065 112.28 121.383 112.461C123.701 112.641 126.032 112.356 128.238 111.623C130.444 110.89 132.481 109.722 134.23 108.19L155 89.5901C155.575 89.0812 156.245 88.6906 156.971 88.4405C157.697 88.1904 158.465 88.0858 159.231 88.1326C159.998 88.1793 160.747 88.3766 161.437 88.7131C162.128 89.0497 162.745 89.5188 163.254 90.0938C163.763 90.6689 164.153 91.3385 164.403 92.0645C164.653 92.7905 164.758 93.5586 164.711 94.325C164.664 95.0915 164.467 95.8412 164.131 96.5314C163.794 97.2216 163.325 97.8387 162.75 98.3476L141.902 116.25C139.018 118.782 135.66 120.717 132.022 121.94C128.384 123.164 124.539 123.653 120.711 123.379C116.882 123.105 113.146 122.074 109.72 120.344C106.293 118.615 103.244 116.222 100.75 113.305L92.0699 102.92C90.5901 101.128 88.7684 99.648 86.7109 98.5669C84.6534 97.4858 82.4013 96.825 80.0858 96.623C77.7704 96.4211 75.4379 96.6819 73.2243 97.3905C71.0107 98.0991 68.9602 99.2411 67.1924 100.75L30.9999 130.898C29.9218 131.812 28.5369 132.283 27.1249 132.215Z" fill="#866828"/>
</svg>
